<svg xmlns="http://www.w3.org/2000/svg" width="27.066" height="27.066" viewBox="0 0 27.066 27.066"><defs><style>.a{fill:none;stroke:#fff;stroke-miterlimit:10;}.b{fill:#fff;}.c{fill:#4255a2;}</style></defs><g transform="translate(0.5 0.5)"><rect class="a" width="26.066" height="26.066" rx="5.393"/><path class="b" d="M46.059,70.982h0a5.593,5.593,0,0,1,5.592-5.593h0a5.593,5.593,0,0,1,5.593,5.593H46.059Z" transform="translate(-35.026 -44.916)"/><g transform="translate(14.878 21.71)"><path class="c" d="M53.012,70.947l2.329-2.329.79.79L53.8,71.738h-.79ZM56.743,68.8l-.385.385-.79-.79.385-.385a.214.214,0,0,1,.3,0l.493.493a.214.214,0,0,1,0,.3Z" transform="translate(-53.012 -67.947)"/></g><g transform="translate(6.378 4.667)"><rect class="a" width="2.704" height="3.12" transform="translate(0 0)"/><line class="a" x2="10.286" transform="translate(4.575 2.218)"/></g><g transform="translate(6.378 10.179)"><rect class="a" width="2.704" height="3.12" transform="translate(0 0)"/><line class="a" x2="10.286" transform="translate(4.575 2.622)"/></g><g transform="translate(6.378 15.69)"><rect class="a" width="2.704" height="3.12" transform="translate(0)"/><line class="a" x2="10.286" transform="translate(4.575 2.622)"/></g></g></svg>