<svg xmlns="http://www.w3.org/2000/svg" width="22" height="24.594" viewBox="0 0 22 24.594"><defs><style>.a{fill:#fff;}</style></defs><path class="a" d="M19.214,0H2.786A2.789,2.789,0,0,0,0,2.786V20.559A1.443,1.443,0,0,0,1.441,22H7.75a.48.48,0,1,0,0-.961H1.441a.481.481,0,0,1-.48-.48V2.786A1.827,1.827,0,0,1,2.786.961H17.112a2.774,2.774,0,0,0-.684,1.825v15.48a.8.8,0,0,1-1.566.254l-.724-2.172a1.5,1.5,0,0,0-2.922.474V17.2H8.726a.48.48,0,1,0,0,.961h2.49v2.39a5.315,5.315,0,0,0,.411,2.055l.707,1.7a.48.48,0,1,0,.887-.369l-.707-1.7a4.361,4.361,0,0,1-.337-1.686V16.823a.539.539,0,0,1,1.049-.17l.724,2.172a1.764,1.764,0,0,0,3.438-.558V10.031l.642.641a6.01,6.01,0,0,1,1.776,4.282v5.106a9.039,9.039,0,0,1-.866,3.848.48.48,0,1,0,.868.412,10.006,10.006,0,0,0,.959-4.26V14.953a6.964,6.964,0,0,0-2.058-4.962L17.389,8.673V8.214h3.17A1.443,1.443,0,0,0,22,6.773V2.786A2.789,2.789,0,0,0,19.214,0Zm1.825,6.773a.481.481,0,0,1-.48.48h-3.17V2.786a1.825,1.825,0,1,1,3.651,0Zm0,0" transform="translate(0 0)"/><path class="a" d="M195.48,438a.48.48,0,1,0,.34.141A.484.484,0,0,0,195.48,438Zm0,0" transform="translate(-185.633 -416.957)"/><path class="a" d="M57.7,54.961A.962.962,0,0,0,56.742,54H54.629a.962.962,0,0,0-.961.961v2.114a.962.962,0,0,0,.961.961h2.114a.962.962,0,0,0,.961-.961Zm-.961,2.114H54.629V54.961h2.114v2.114Zm0,0" transform="translate(-51.09 -51.406)"/><path class="a" d="M57.7,174.961a.962.962,0,0,0-.961-.961H54.629a.962.962,0,0,0-.961.961v2.114a.962.962,0,0,0,.961.961h2.114a.962.962,0,0,0,.961-.961Zm-.961,2.114H54.629v-2.114h2.114v2.114Zm0,0" transform="translate(-51.09 -165.642)"/><path class="a" d="M56.742,294H54.629a.962.962,0,0,0-.961.961v2.113a.962.962,0,0,0,.961.961h2.114a.962.962,0,0,0,.961-.961v-2.113A.962.962,0,0,0,56.742,294Zm0,3.074H54.629v-2.113h2.114v2.113Zm0,0" transform="translate(-51.09 -279.878)"/><path class="a" d="M221.186,118.961a.48.48,0,0,0,0-.961h-3.311a.48.48,0,1,0,0,.961Zm0,0" transform="translate(-206.952 -112.332)"/><path class="a" d="M172.148,118.961a.481.481,0,1,0-.34-.141A.484.484,0,0,0,172.148,118.961Zm0,0" transform="translate(-163.422 -112.332)"/><path class="a" d="M172.144,238.961h5.508a.48.48,0,1,0,0-.961h-5.508a.48.48,0,1,0,0,.961Zm0,0" transform="translate(-163.418 -226.568)"/></svg>